# xmcd CD database file generated by OrangeCD 4.3
#
# Track frame offsets:
#	150
#	14650
#	30915
#	43262
#	56357
#	69770
#	80865
#	92615
#	108807
#	120875
#	135265
#	154602
#	172155
#	183977
#	200367
#	212907
#	227095
#	239185
#	259630
#	273502
#
# Disc length: 3809 seconds
#
# Revision: 0
# Processed by: cddbd v1.4PL0 Copyright (c) Steve Scherf et al.
# Submitted via: OrangeCD 4.3
#
DISCID=0d0edf14
DTITLE=Various Artist - Country Line Dancing
DYEAR=1997
DGENRE=
TTITLE0=Chattahoochee
TTITLE1=He thinks he'll keep her
TTITLE2=A good run of bad luck
TTITLE3=Indian outlaw
TTITLE4=Super love
TTITLE5=If the good die young
TTITLE6=My baby loves me
TTITLE7=Mervury blues
TTITLE8=Hillbilly rock
TTITLE9=Rock my world
TTITLE10=I swear
TTITLE11=Rope the moon
TTITLE12=Holdin' heaven
TTITLE13=Walking away a winner
TTITLE14=I try to think about Elvis
TTITLE15=The boys and me
TTITLE16=Wild one
TTITLE17=Kohn deere green
TTITLE18=Guitars, Cadillacs
TTITLE19=Third rock from the sun
EXTD=
EXTT0=
EXTT1=
EXTT2=
EXTT3=
EXTT4=
EXTT5=
EXTT6=
EXTT7=
EXTT8=
EXTT9=
EXTT10=
EXTT11=
EXTT12=
EXTT13=
EXTT14=
EXTT15=
EXTT16=
EXTT17=
EXTT18=
EXTT19=
PLAYORDER=
